<?xml version="1.0" encoding="UTF-8"?>
<svg id="Camada_1" data-name="Camada 1" xmlns="http://www.w3.org/2000/svg" version="1.1" xmlns:xlink="http://www.w3.org/1999/xlink" viewBox="0 0 2538 1075">
  <defs>
    <style>
      .cls-1 {
        fill: none;
      }

      .cls-1, .cls-2, .cls-3 {
        stroke-width: 0px;
      }

      .cls-2 {
        fill: #005eb8;
      }

      .cls-4 {
        font-family: MyriadPro-Regular, 'Myriad Pro';
        font-size: 194px;
        letter-spacing: .3em;
      }

      .cls-4, .cls-3 {
        fill: #fff;
      }

      .cls-5 {
        clip-path: url(#clippath);
      }
    </style>
    <clipPath id="clippath">
      <polyline class="cls-1" points="2538 1075 0 1075 0 0 2538 0"/>
    </clipPath>
  </defs>
  <g class="cls-5">
    <text class="cls-4" transform="translate(1264.8 965.6)"><tspan x="0" y="0">INNOBANK</tspan></text>
    <path class="cls-3" d="M526.2,1050.5c277.4,0,502.3-229.7,502.3-513S803.6,24.5,526.2,24.5,24,254.2,24,537.5s224.9,513,502.3,513Z"/>
    <path class="cls-2" d="M526.3,0C235.6,0,0,240.7,0,537.5s235.6,537.5,526.2,537.5,526.2-240.7,526.2-537.5S816.8,0,526.3,0ZM494.2,1024.9c-246.5,0-446.2-204-446.2-455.6s101.9-335.2,249.8-409.4c-106.6,87.2-174.7,220.9-174.7,371,0,262.1,208.2,474.6,464.9,474.6s27-.4,40.3-1.7c-42.5,13.7-87.5,21-134.1,21h0ZM743.4,867.3c8.7,0,17.2-.4,25.5-1.1-34.2,12.8-71.3,19.7-109.9,19.7-177.1,0-320.5-146.6-320.5-327.4s143.5-327.4,320.5-327.4,75.8,7.2,109.9,19.9c-8.3-.9-16.8-1.1-25.5-1.1-166.9,0-302.1,138.1-302.1,308.5s135.2,308.8,302.1,308.8ZM679.7,152.2c-214.6,0-388.7,177.6-388.7,396.8s174.1,396.8,388.7,396.8,72.2-5.2,105.7-14.7c-53.7,24.7-113.3,38.4-176.2,38.4-237.7,0-430.5-196.9-430.5-439.7S371.5,90.2,609.3,90.2s270.2,71.6,348.3,181.5c-70.5-73.7-169-119.5-277.9-119.5Z"/>
    <path class="cls-3" d="M1669.2,670.9h-99.2v-231.5h-201.7v231.5h-99.2V148.4h99.2v207.3h201.7v-207.3h99.2v522.5Z"/>
    <path class="cls-3" d="M2521,303c-14.2-33-33.7-61.8-58.4-86.3-24.8-24.7-53.7-44-86.4-57.9-32.9-13.9-67.9-21-104.9-21s-72.2,7.2-105.3,21c-32.9,13.9-62,33.2-86.6,57.5-24.8,24.5-44.2,53.4-58.6,86.3-14.2,33.2-21.4,68.7-21.4,106.7s7.2,73.3,21.4,106.3c14.4,33,33.7,61.6,58.6,86.1,24.6,24.5,53.7,43.6,86.6,57.9,33.1,14.1,68.1,21.2,105.3,21.2s72-7.2,104.9-21.2c32.7-14.3,61.6-33.4,86.4-57.9,24.6-24.5,44.2-53.1,58.4-86.3,14.2-33.2,21.4-68.5,21.4-106s-7.2-73.3-21.4-106.3ZM2429.8,476.7c-8.9,21.2-21.2,39.9-37,55.9-15.7,16-33.7,28.4-54.8,37.9-21,9.3-43.1,13.9-66.7,13.9s-46.5-4.6-67.5-13.9c-20.8-9.6-39.1-22.1-54.8-37.9-15.5-16.1-27.8-34.7-37-55.9-8.9-21.5-13.4-43.8-13.4-67.4s4.5-46.6,13.4-67.6c9.1-21.2,21.5-39.7,37-55.5,15.7-16.1,34-28.6,54.8-37.9,21-9.6,43.5-14.1,67.5-14.1s45.6,4.6,66.7,14.1c21,9.3,39.2,21.9,54.8,37.9,15.7,15.8,28,34.3,37,55.5,8.9,21,13.6,43.8,13.6,67.6s-4.7,46-13.6,67.4Z"/>
    <path class="cls-3" d="M1952.7,670.9h-219.7l115.1-139.3c4.5-5.6,9-11.4,13.6-17.4,4.6-6,8.8-12.1,12.5-18.5,3.7-6.3,6.7-12.7,9-18.9,2.2-6.2,3.4-12.2,3.4-18.1,0-13.5-4.2-24.2-12.5-32.1-8.3-7.9-18.6-11.8-30.8-11.8s-26.4,3.6-37.4,10.9c-11,7.2-20.2,16.6-27.6,28l-40.4-40.8c13.2-17,28.2-30.1,44.8-39.3,16.7-9.1,37.4-13.7,62-13.7s25.5,2,37.5,5.9c12.1,4,22.8,9.9,32.3,17.7,9.5,7.9,17.1,17.7,22.8,29.4,5.7,11.7,8.6,25.2,8.6,40.4s-1.4,19.8-4.1,29c-2.7,9.1-6.4,18-11,26.5-4.6,8.5-10,16.9-16.2,25.2-6.2,8.3-12.7,16.7-19.4,25.4l-42.6,54.2h100.1v57.2h0Z"/>
  </g>
</svg>