<?xml version="1.0" encoding="UTF-8"?>
<svg id="Camada_1" data-name="Camada 1" xmlns="http://www.w3.org/2000/svg" version="1.1" viewBox="0 0 1052.5 1075">
  <defs>
    <style>
      .cls-1 {
        opacity: 0;
      }

      .cls-1, .cls-2, .cls-3 {
        fill: #005eb8;
        stroke-width: 0px;
      }

      .cls-2 {
        opacity: .3;
      }

      .cls-3 {
        opacity: .2;
      }
    </style>
  </defs>
  <path class="cls-1" d="M494.2,1024.9c-246.5,0-446.2-204-446.2-455.6s101.9-335.2,249.8-409.4c-106.6,87.2-174.7,220.9-174.7,371,0,262.1,208.2,474.6,464.9,474.6s27-.4,40.3-1.7c-42.5,13.7-87.5,21-134.1,21h0Z"/>
  <path class="cls-2" d="M743.4,867.3c8.7,0,17.2-.4,25.5-1.1-34.2,12.8-71.3,19.7-109.9,19.7-177.1,0-320.5-146.6-320.5-327.4s143.5-327.4,320.5-327.4,75.8,7.2,109.9,19.9c-8.3-.9-16.8-1.1-25.5-1.1-166.9,0-302.1,138.1-302.1,308.5s135.2,308.8,302.1,308.8Z"/>
  <path class="cls-3" d="M679.7,152.2c-214.6,0-388.7,177.6-388.7,396.8s174.1,396.8,388.7,396.8,72.2-5.2,105.7-14.7c-53.7,24.7-113.3,38.4-176.2,38.4-237.7,0-430.5-196.9-430.5-439.7S371.5,90.2,609.3,90.2s270.2,71.6,348.3,181.5c-70.5-73.7-169-119.5-277.9-119.5Z"/>
</svg>